<svg width="44" height="44" viewBox="0 0 44 44" fill="none" xmlns="http://www.w3.org/2000/svg">
<circle cx="22" cy="22" r="22" fill="#1B1B1D"/>
<rect width="24" height="24" transform="translate(10 10)" fill="#1B1B1D"/>
<path fill-rule="evenodd" clip-rule="evenodd" d="M27 30.0049V29C27 28.4477 26.5523 28 26 28C25.4477 28 25 28.4477 25 29L25.0002 29.0195L25 30.0049C25 30.0025 14.9951 30 14.9951 30C14.9975 30 15 13.9951 15 13.9951C15 13.9975 25.0049 14 25.0049 14C25.0046 14 25.004 14.6682 25.0038 14.9122C25.0013 14.9411 25 14.9704 25 15C25 15.5523 25.4477 16 26 16C26.5523 16 27 15.5523 27 15V13.9951C27 12.8932 26.1074 12 25.0049 12H14.9951C13.8932 12 13 12.8926 13 13.9951V30.0049C13 31.1068 13.8926 32 14.9951 32H25.0049C26.1068 32 27 31.1074 27 30.0049ZM28.3018 19.767L29.5338 21L21.0799 21.0031C21.0536 21.0011 21.0269 21 21 21C20.4477 21 20 21.4477 20 22C20 22.5523 20.4477 23 21 23.0032L29.5338 23L28.3018 24.233C27.8988 24.635 27.8988 25.295 28.3018 25.698C28.7048 26.101 29.3638 26.101 29.7668 25.698L32.6968 22.767C32.9028 22.561 33.0008 22.289 32.9958 22.017C32.998 22.0002 32.997 21.993 32.9963 21.988C32.996 21.9862 32.9958 21.9846 32.9958 21.983C33.0008 21.711 32.9028 21.439 32.6968 21.233L29.7668 18.302C29.3638 17.899 28.7048 17.899 28.3018 18.302C27.8988 18.705 27.8988 19.364 28.3018 19.767Z" fill="white"/>
</svg>
