<svg width="24" height="24" viewBox="0 0 24 24" fill="none" xmlns="http://www.w3.org/2000/svg">
<g id="icon / 24 / exit">
<path id="Combined Shape" fill-rule="evenodd" clip-rule="evenodd" d="M16 20.0049V19C16 18.4477 15.5523 18 15 18C14.4477 18 14 18.4477 14 19L14.0002 19.0195L14 20.0049C14 20.0025 3.99509 20 3.99509 20C3.9975 20 4 3.99509 4 3.99509C4 3.9975 14.0049 4 14.0049 4C14.0046 4 14.004 4.66816 14.0038 4.91216C14.0013 4.9411 14 4.9704 14 5C14 5.55228 14.4477 6 15 6C15.5523 6 16 5.55228 16 5V3.99509C16 2.89323 15.1074 2 14.0049 2H3.99509C2.89323 2 2 2.89262 2 3.99509V20.0049C2 21.1068 2.89262 22 3.99509 22H14.0049C15.1068 22 16 21.1074 16 20.0049ZM17.3018 9.767L18.5338 11L10.0799 11.0031C10.0536 11.0011 10.0269 11 10 11C9.44772 11 9 11.4477 9 12C9 12.5523 9.44772 13 10 13.0032L18.5338 13L17.3018 14.233C16.8988 14.635 16.8988 15.295 17.3018 15.698C17.7048 16.101 18.3638 16.101 18.7668 15.698L21.6968 12.767C21.9028 12.561 22.0008 12.289 21.9958 12.017C21.998 12.0002 21.997 11.993 21.9963 11.988C21.996 11.9862 21.9958 11.9846 21.9958 11.983C22.0008 11.711 21.9028 11.439 21.6968 11.233L18.7668 8.302C18.3638 7.899 17.7048 7.899 17.3018 8.302C16.8988 8.705 16.8988 9.364 17.3018 9.767Z" fill="white"/>
</g>
</svg>
